<svg id="BISPO" xmlns="http://www.w3.org/2000/svg" width="39.469" height="83.188" viewBox="0 0 39.469 83.188">
  <defs>
    <style>
      .cls-1 {
        fill: #262626;
      }

      .cls-1, .cls-2, .cls-3, .cls-4 {
        fill-rule: evenodd;
      }

      .cls-2 {
        fill: #2a2a2a;
      }

      .cls-3, .cls-4 {
        fill: none;
        stroke-width: 1px;
      }

      .cls-3 {
        stroke: #f17aa4;
      }

      .cls-4 {
        stroke: #ea3775;
      }
    </style>
  </defs>
  <path id="Forma_4_copiar_5" data-name="Forma 4 copiar 5" class="cls-1" d="M45,7s-4-.005-2,3c-3.021,2.625-14.913,9.629-5,21-0.282.188-2.457,1.552,0,3,0.023,1.372,0,3,0,3s-12.5,4.423,0,6c0.251,0.664,3.715,12.254-3,27a18.841,18.841,0,0,1-2,0v2S19.723,82.436,29,84c0.034,1.458,0,2,0,2s-7.8,1.241,0,2.99H45M45,7s3.952-.005,2,3c-1.034,2.384-5.362,11.527-5,14,0.1,0.665,2.538-.411,4-2,0.542-.589,4.5-9.176,5-9,4.845,1.7,8.152,9.4.831,18,0.275,0.188,2.4,1.552,0,3-0.022,1.372,0,3,0,3s12.2,4.423,0,6c-0.245.664-3.626,12.254,2.928,27a17.947,17.947,0,0,0,1.952,0v2s12.957,10.436,3.9,12c-0.033,1.458,0,2,0,2s7.61,1.241,0,2.99H45" transform="translate(-25.031 -6.313)"/>
  <path id="Forma_4_copiar_7" data-name="Forma 4 copiar 7" class="cls-2" d="M45,7s-4-.005-2,3c-3.021,2.625-14.913,9.629-5,21-0.282.188-2.457,1.552,0,3,0.023,1.372,0,3,0,3s-12.5,4.423,0,6c0.251,0.664,3.715,12.254-3,27a18.841,18.841,0,0,1-2,0v2S19.723,82.436,29,84c0.034,1.458,0,2,0,2s-7.8,1.241,0,2.99H45V24s-0.582-.021-1-3c0.29-.179,1-3.68,1-5V7Z" transform="translate(-25.031 -6.313)"/>
  <path id="Forma_4" data-name="Forma 4" class="cls-3" d="M45,7s-4-.005-2,3c-3.021,2.625-14.913,9.629-5,21-0.282.188-2.457,1.552,0,3,0.023,1.372,0,3,0,3s-12.5,4.423,0,6c0.251,0.664,3.715,12.254-3,27a18.841,18.841,0,0,1-2,0v2S19.723,82.436,29,84c0.034,1.458,0,2,0,2s-7.8,1.241,0,2.99H45" transform="translate(-25.031 -6.313)"/>
  <path id="Forma_4_copiar_6" data-name="Forma 4 copiar 6" class="cls-4" d="M45,7s3.952-.005,2,3a83.854,83.854,0,0,0-4,13c-0.064.427,0.706,1.688,2,0,0.307-.4,5.5-10.176,6-10,4.845,1.7,8.152,9.4.831,18,0.275,0.188,2.4,1.552,0,3-0.022,1.372,0,3,0,3s12.2,4.423,0,6c-0.245.664-3.626,12.254,2.928,27a17.947,17.947,0,0,0,1.952,0v2s12.957,10.436,3.9,12c-0.033,1.458,0,2,0,2s7.61,1.241,0,2.99H45" transform="translate(-25.031 -6.313)"/>
</svg>
