<svg id="PEAO" xmlns="http://www.w3.org/2000/svg" width="34" height="74.812" viewBox="0 0 34 74.812">
  <defs>
    <style>
      .cls-1 {
        fill: #262626;
      }

      .cls-1, .cls-2, .cls-3, .cls-4 {
        fill-rule: evenodd;
      }

      .cls-2 {
        fill: #2a2a2a;
      }

      .cls-3, .cls-4 {
        fill: none;
        stroke-width: 1px;
      }

      .cls-3 {
        stroke: #e77ca2;
      }

      .cls-4 {
        stroke: #ea3775;
      }
    </style>
  </defs>
  <path id="Forma_1_copiar" data-name="Forma 1 copiar" class="cls-1" d="M44.195,15.581s-10.323,2.186-9.586,12.724c0.184,2.219.922,8.157,5.752,10.18-2.691,2.316-7.079,4.144-6.71,5.09s-0.922,2.773,5.752,2.545c0.037,3.589.451,16.843-2.876,20.359-1.545.021-2.876,0-2.876,0v3.393S21.965,80.924,30.774,83.444c-2.747,1.457-6.034,5.106.959,5.949H44.195m0-73.812s10.082,2.186,9.362,12.724c-0.18,2.219-.9,8.157-5.617,10.18,2.629,2.316,6.914,4.144,6.554,5.09s0.9,2.773-5.617,2.545c-0.036,3.589-.44,16.843,2.809,20.359,1.509,0.021,2.809,0,2.809,0v3.393S65.905,80.924,57.3,83.444c2.683,1.457,5.893,5.106-.936,5.949H44.195" transform="translate(-27 -15.094)"/>
  <path id="Forma_1_copiar_2" data-name="Forma 1 copiar 2" class="cls-2" d="M44.195,15.581s-10.323,2.186-9.586,12.724c0.184,2.219.922,8.157,5.752,10.18-2.691,2.316-7.079,4.144-6.71,5.09s-0.922,2.773,5.752,2.545c0.037,3.589.451,16.843-2.876,20.359-1.545.021-2.876,0-2.876,0v3.393S21.965,80.924,30.774,83.444c-2.747,1.457-6.034,5.106.959,5.949H44.195V15.581Z" transform="translate(-27 -15.094)"/>
  <path id="Forma_1" data-name="Forma 1" class="cls-3" d="M44.195,15.581s-10.323,2.186-9.586,12.724c0.184,2.219.922,8.157,5.752,10.18-2.691,2.316-7.079,4.144-6.71,5.09s-0.922,2.773,5.752,2.545c0.037,3.589.451,16.843-2.876,20.359-1.545.021-2.876,0-2.876,0v3.393S21.965,80.924,30.774,83.444c-2.747,1.457-6.034,5.106.959,5.949H44.195" transform="translate(-27 -15.094)"/>
  <path id="Forma_1_copiar_3" data-name="Forma 1 copiar 3" class="cls-4" d="M44.195,15.581s10.082,2.186,9.362,12.724c-0.18,2.219-.9,8.157-5.617,10.18,2.629,2.316,6.914,4.144,6.554,5.09s0.9,2.773-5.617,2.545c-0.036,3.589-.44,16.843,2.809,20.359,1.509,0.021,2.809,0,2.809,0v3.393S65.905,80.924,57.3,83.444c2.683,1.457,5.893,5.106-.936,5.949H44.195" transform="translate(-27 -15.094)"/>
</svg>
