<svg id="Torre" xmlns="http://www.w3.org/2000/svg" width="41.125" height="72" viewBox="0 0 41.125 72">
  <defs>
    <style>
      .cls-1 {
        fill: #262626;
      }

      .cls-1, .cls-2, .cls-3, .cls-4 {
        fill-rule: evenodd;
      }

      .cls-2 {
        fill: #2a2a2a;
      }

      .cls-3, .cls-4 {
        fill: none;
        stroke-width: 1px;
      }

      .cls-3 {
        stroke: #ea3775;
      }

      .cls-4 {
        stroke: #f17aa4;
      }
    </style>
  </defs>
  <path id="Forma_5_copiar" data-name="Forma 5 copiar" class="cls-1" d="M44.835,18H51v5h4V18h5V29s-7.859,3.97-6,4,1,2,1,2-0.9,17.808,2,31c0.879-.04,2.455,1.515,0,2-0.03.687,0,2,0,2s14.11,11.459,5,13c-0.029,1.114,0,2,0,2s7.633,2.449-1,3.99H44.969M45.009,18h-6.08v5H34.985V18H30.054V29s7.75,3.97,5.917,4-0.986,2-.986,2,0.886,17.808-1.972,31c-0.867-.04-2.421,1.515,0,2,0.03,0.687,0,2,0,2S19.1,81.459,28.082,83c0.029,1.114,0,2,0,2s-7.527,2.449.986,3.99H44.876" transform="translate(-24.5 -17.5)"/>
  <path id="Forma_5_copiar_3" data-name="Forma 5 copiar 3" class="cls-2" d="M45,89l-8.043-.01H29.068C20.555,87.449,28.082,85,28.082,85s0.029-.886,0-2c-8.984-1.541,4.931-13,4.931-13s0.03-1.313,0-2c-2.421-.485-0.867-2.04,0-2,2.859-13.192,1.972-31,1.972-31s-0.847-1.97.986-2-5.917-4-5.917-4V18h4.931v5h3.944V18h6.08" transform="translate(-24.5 -17.5)"/>
  <path id="Forma_5" data-name="Forma 5" class="cls-3" d="M44.835,18H51v5h4V18h5V29s-7.859,3.97-6,4,1,2,1,2-0.9,17.808,2,31c0.879-.04,2.455,1.515,0,2-0.03.687,0,2,0,2s14.11,11.459,5,13c-0.029,1.114,0,2,0,2s7.633,2.449-1,3.99H44.969" transform="translate(-24.5 -17.5)"/>
  <path id="Forma_5_copiar_2" data-name="Forma 5 copiar 2" class="cls-4" d="M45.009,18h-6.08v5H34.985V18H30.054V29s7.75,3.97,5.917,4-0.986,2-.986,2,0.886,17.808-1.972,31c-0.867-.04-2.421,1.515,0,2,0.03,0.687,0,2,0,2S19.1,81.459,28.082,83c0.029,1.114,0,2,0,2s-7.527,2.449.986,3.99H44.876" transform="translate(-24.5 -17.5)"/>
</svg>
