<svg id="Rainha" xmlns="http://www.w3.org/2000/svg" width="43.375" height="88" viewBox="0 0 43.375 88">
  <defs>
    <style>
      .cls-1 {
        fill: #ececec;
      }

      .cls-1, .cls-2, .cls-3, .cls-4 {
        fill-rule: evenodd;
      }

      .cls-2 {
        fill: #fff;
      }

      .cls-3, .cls-4 {
        fill: none;
        stroke-width: 1px;
      }

      .cls-3 {
        stroke: #ea3775;
      }

      .cls-4 {
        stroke: #f17aa4;
      }
    </style>
  </defs>
  <path id="Forma_4_copiar" data-name="Forma 4 copiar" class="cls-1" d="M45,2s4,0.372,2,3a15.045,15.045,0,0,1,7,7c1.533-1.319,3.567-2.491,5-2-0.43.424-6.985,6.463-7,8s0,2,0,2H51v2h2v2H52v3s12.347,5,0,5c0,1.037-4.946,32.3,4,38,1.124,0,2,0,2,0v3s15.691,11,4,11c-0.011,1.031,0,2,0,2s6.881,1,0,2.99H45M45,2s-3.941.372-1.971,3a14.91,14.91,0,0,0-6.9,7c-1.511-1.319-3.515-2.491-4.927-2,0.424,0.424,6.882,6.463,6.9,8s0,2,0,2h0.985v2H37.117v2H38.1v3s-12.166,5,0,5c0,1.037,4.874,32.3-3.941,38-1.108,0-1.971,0-1.971,0v3S16.73,84,28.249,84c0.011,1.031,0,2,0,2s-6.78,1,0,2.99H45" transform="translate(-23.469 -1.5)"/>
  <path id="Forma_4_copiar_4" data-name="Forma 4 copiar 4" class="cls-2" d="M45,2s-3.941.372-1.971,3a14.91,14.91,0,0,0-6.9,7c-1.511-1.319-3.515-2.491-4.927-2,0.424,0.424,6.882,6.463,6.9,8s0,2,0,2h0.985v2H37.117v2H38.1v3s-12.166,5,0,5c0,1.037,4.874,32.3-3.941,38-1.108,0-1.971,0-1.971,0v3S16.73,84,28.249,84c0.011,1.031,0,2,0,2s-6.78,1,0,2.99H45" transform="translate(-23.469 -1.5)"/>
  <path id="Forma_4_copiar_3" data-name="Forma 4 copiar 3" class="cls-3" d="M45,2s4,0.372,2,3a15.045,15.045,0,0,1,7,7c1.533-1.319,3.567-2.491,5-2-0.43.424-6.985,6.463-7,8s0,2,0,2H51v2h2v2H52v3s12.347,5,0,5c0,1.037-4.946,32.3,4,38,1.124,0,2,0,2,0v3s15.691,11,4,11c-0.011,1.031,0,2,0,2s6.881,1,0,2.99H45" transform="translate(-23.469 -1.5)"/>
  <path id="Forma_4_copiar_2" data-name="Forma 4 copiar 2" class="cls-4" d="M45,2s-3.941.372-1.971,3a14.91,14.91,0,0,0-6.9,7c-1.511-1.319-3.515-2.491-4.927-2,0.424,0.424,6.882,6.463,6.9,8s0,2,0,2h0.985v2H37.117v2H38.1v3s-12.166,5,0,5c0,1.037,4.874,32.3-3.941,38-1.108,0-1.971,0-1.971,0v3S16.73,84,28.249,84c0.011,1.031,0,2,0,2s-6.78,1,0,2.99H45" transform="translate(-23.469 -1.5)"/>
</svg>
