<svg id="REI" xmlns="http://www.w3.org/2000/svg" width="45.031" height="89" viewBox="0 0 45.031 89">
  <defs>
    <style>
      .cls-1 {
        fill: #ececec;
      }

      .cls-1, .cls-2, .cls-3, .cls-4 {
        fill-rule: evenodd;
      }

      .cls-2 {
        fill: #fff;
      }

      .cls-3, .cls-4 {
        fill: none;
        stroke-width: 1px;
      }

      .cls-3 {
        stroke: #ea3775;
      }

      .cls-4 {
        stroke: #e77ca2;
      }
    </style>
  </defs>
  <path id="Forma_3_copiar" data-name="Forma 3 copiar" class="cls-1" d="M45,0.98A3.078,3.078,0,0,1,47,4c2.02,0.02,2,0,2,0V6H48V8h3V7h2v6H51V12H48v1s4.273,1.5,0,3v1h2v1h9s1.822,3.143-7,12c0.01,0,4.682,1.418,0,3,0,0.819,0,3,0,3h3v1s8.807,1.973-3,3c-0.012,1.334,0,4,0,4H51s-1.037,19.516,6,29c1.514,0.007,2,0,2,0v2s15.008,10.064,4,10a3.492,3.492,0,0,0,0,1s7.032,1.974,0,2.99H45M45,1.011A3.076,3.076,0,0,0,43,4.03c-2.017.02-2,0-2,0v2h1v2h-3v-1h-2v6h2v-1h3v1s-4.267,1.5,0,3v1h-2v1H31.02s-1.82,3.142,6.99,12c-0.01,0-4.675,1.417,0,3,0,0.818,0,3,0,3h-3v1s-8.8,1.972,3,3c0.012,1.334,0,4,0,4h1s1.036,19.509-5.991,28.99c-1.512.007-2,0-2,0v2s-14.987,10.06-3.994,10a3.49,3.49,0,0,1,0,1s-7.022,1.973,0,2.989H45" transform="translate(-22.5 -0.5)"/>
  <path id="Forma_3_copiar_2" data-name="Forma 3 copiar 2" class="cls-2" d="M45,1.011A3.076,3.076,0,0,0,43,4.03c-2.017.02-2,0-2,0v2h1v2h-3v-1h-2v6h2v-1h3v1s-4.267,1.5,0,3v1h-2v1H31.02s-1.82,3.142,6.99,12c-0.01,0-4.675,1.417,0,3,0,0.818,0,3,0,3h-3v1s-8.8,1.972,3,3c0.012,1.334,0,4,0,4h1s1.036,19.509-5.991,28.99c-1.512.007-2,0-2,0v2s-14.987,10.06-3.994,10a3.49,3.49,0,0,1,0,1s-7.022,1.973,0,2.989H45V1.011Z" transform="translate(-22.5 -0.5)"/>
  <path id="Forma_3" data-name="Forma 3" class="cls-3" d="M45,0.98A3.078,3.078,0,0,1,47,4c2.02,0.02,2,0,2,0V6H48V8h3V7h2v6H51V12H48v1s4.273,1.5,0,3v1h2v1h9s1.822,3.143-7,12c0.01,0,4.682,1.418,0,3,0,0.819,0,3,0,3h3v1s8.807,1.973-3,3c-0.012,1.334,0,4,0,4H51s-1.037,19.516,6,29c1.514,0.007,2,0,2,0v2s15.008,10.064,4,10a3.492,3.492,0,0,0,0,1s7.032,1.974,0,2.99H45" transform="translate(-22.5 -0.5)"/>
  <path id="Forma_3_copiar_4" data-name="Forma 3 copiar 4" class="cls-4" d="M45,1.011A3.076,3.076,0,0,0,43,4.03c-2.017.02-2,0-2,0v2h1v2h-3v-1h-2v6h2v-1h3v1s-4.267,1.5,0,3v1h-2v1H31.02s-1.82,3.142,6.99,12c-0.01,0-4.675,1.417,0,3,0,0.818,0,3,0,3h-3v1s-8.8,1.972,3,3c0.012,1.334,0,4,0,4h1s1.036,19.509-5.991,28.99c-1.512.007-2,0-2,0v2s-14.987,10.06-3.994,10a3.49,3.49,0,0,1,0,1s-7.022,1.973,0,2.989H45" transform="translate(-22.5 -0.5)"/>
</svg>
